<?xml version="1.0" encoding="utf-8"?>
<!-- Generator: Adobe Illustrator 27.7.0, SVG Export Plug-In . SVG Version: 6.00 Build 0)  -->
<svg version="1.1" id="Layer_2_00000065055990863589628940000015676511532019322033_"
	 xmlns="http://www.w3.org/2000/svg" xmlns:xlink="http://www.w3.org/1999/xlink" x="0px" y="0px" viewBox="0 0 498.8 656.2"
	 style="enable-background:new 0 0 498.8 656.2;" xml:space="preserve">
<style type="text/css">
	.st0{fill:#DB1F26;}
</style>
<path class="st0" d="M104.6,119.4L17.5,375.9l61.3-88.4c53-76.4,111.1-149,174.1-217.4l59-64.1l-192,96
	C112.6,105.6,107.2,111.8,104.6,119.4L104.6,119.4z"/>
<path class="st0" d="M100.8,495.7l71.5-97.8c47.1-64.5,98.6-125.6,154.2-182.9l76.4-78.8l-187.2,90c-11.9,5.7-21.1,15.9-25.7,28.3
	L100.8,495.7L100.8,495.7z"/>
<path class="st0" d="M197.2,652l76.6-246.1c6-19.1,19.6-34.9,37.6-43.6l172.3-82.8l-70.9,79.1c-54.2,60.5-104,124.8-148.8,192.6
	L197.2,652L197.2,652z"/>
</svg>
